<svg xmlns="http://www.w3.org/2000/svg" width="230" height="229" viewBox="0 0 230 229">
  <path fill="#99EAFF" d="M158.429025,187.284029 L185.106029,199.806031 C187.828029,200.895031 191.09503,200.350031 192.72803,198.717031 C194.36103,197.084031 196.539031,195.450031 198.172031,193.27303 C200.350031,191.09503 200.895031,187.828029 199.261031,185.650029 L186.739029,158.973025 C191.09503,151.896024 194.36103,143.729022 196.539031,135.563021 L224.849035,125.76302 C227.572036,124.674019 229.205036,122.497019 229.749036,119.230019 C229.749036,118.141018 229.749036,116.508018 229.749036,115.419018 C229.749036,114.330018 229.749036,112.697018 229.749036,111.608017 C229.749036,108.886017 227.572036,106.164017 224.849035,105.075016 L197.084031,94.7308148 C194.90603,86.5643135 191.63903,78.3979122 187.284029,71.3203111 L199.806031,44.643207 C200.895031,41.9211065 200.350031,38.654506 198.717031,37.0212058 C197.084031,35.3879055 195.450031,33.2102052 193.27203,31.5769049 C191.09503,29.3992046 187.828029,28.8548045 185.650029,30.4881048 L158.973025,43.0099067 C151.896024,38.654506 143.729022,35.3879055 135.563021,33.2102052 L125.76302,4.89987076 C124.674019,2.17772034 122.497019,0.544430085 119.230019,0 C118.141018,0 116.508018,0 115.419018,0 C114.330018,0 112.697018,0 111.608017,0 C108.886017,0 106.164017,2.17772034 105.075016,4.89987076 L95.2752149,33.2102052 C87.1087136,35.3879055 78.9423123,38.654506 71.8647112,43.0099067 L45.1876071,30.4881048 C42.4655066,29.3992046 39.1989061,29.9436047 37.5656059,31.5769049 C35.9323056,33.2102052 33.7546053,34.8435054 32.121305,37.0212058 C29.9436047,39.1989061 29.3991046,42.4655066 31.0324048,44.643207 L43.5543068,71.3203111 C39.1989061,78.3979122 35.9323056,86.5643135 33.7546053,94.7308148 L5.44429085,104.530016 C2.17772034,105.619016 0.544429085,108.341017 0,111.064017 C0,112.152018 0,113.786018 0,114.875018 C0,115.964018 0,117.597018 0,118.686019 C0,121.408019 2.17772034,124.130019 4.89986076,125.21902 L33.2101052,135.019021 C35.3879055,143.185022 38.654406,151.351024 43.0099067,158.429025 L29.9436047,185.650029 C28.8547045,188.373029 29.3991046,191.63903 31.0324048,193.27303 C32.6657051,194.90603 34.2990054,197.084031 36.4767057,198.717031 C38.654406,200.895031 41.9210065,201.439031 44.0987069,199.806031 L70.775811,187.284029 C77.8534122,191.63903 86.0199134,194.90603 94.1863147,197.084031 L103.986016,225.394035 C105.075016,228.116036 107.253017,229.749036 110.519017,230.294036 C111.608017,230.294036 113.241018,230.294036 114.330018,230.294036 C115.419018,230.294036 117.052018,230.294036 118.141018,230.294036 C120.863019,230.294036 123.586019,228.116036 124.674019,225.394035 L134.474021,197.084031 C143.729022,194.90603 151.351024,191.63903 158.429025,187.284029 Z M80.0311125,115.964018 C79.4867124,95.819615 95.819615,79.4867124 115.963018,80.0312125 C133.930021,80.5756126 149.174023,95.2752149 149.718023,113.786018 C150.263023,133.930021 133.930021,150.263023 113.786018,149.718023 C95.819615,149.174023 81.1200127,133.930021 80.0311125,115.964018 Z" transform="rotate(-136 115.05 114.933)"/>
</svg>
